<svg xmlns="http://www.w3.org/2000/svg" version="1.1" xmlns:xlink="http://www.w3.org/1999/xlink" xmlns:svgjs="http://svgjs.dev/svgjs" width="1000" height="1000" viewBox="0 0 1000 1000"><rect width="1000" height="1000" fill="#ffffff"></rect><g transform="matrix(0.7,0,0,0.7,149.57575757575756,448.56993104386834)"><svg viewBox="0 0 396 59" data-background-color="#ffffff" preserveAspectRatio="xMidYMid meet" height="148" width="1000" xmlns="http://www.w3.org/2000/svg" xmlns:xlink="http://www.w3.org/1999/xlink"><g id="tight-bounds" transform="matrix(1,0,0,1,0.2400000000000091,-0.21067501533045174)"><svg viewBox="0 0 395.52 59.42135003066092" height="59.42135003066092" width="395.52"><g><svg viewBox="0 0 742.5422021026612 111.55658399999999" height="59.42135003066092" width="395.52"><g><svg viewBox="0 0 742.5422021026612 111.55658399999999" height="111.55658399999999" width="742.5422021026612"><g id="textblocktransform"><svg viewBox="0 0 742.5422021026612 111.55658399999999" height="111.55658399999999" width="742.5422021026612" id="textblock"><g><svg viewBox="0 0 742.5422021026612 82.51799999999999" height="82.51799999999999" width="742.5422021026612"><g><svg><g></g><g></g></svg></g><g><svg><g><svg></svg></g><g></g></svg></g><g id="text-0"><svg viewBox="0 0 742.5422021026612 82.51799999999999" height="82.51799999999999" width="742.5422021026612"><g transform="matrix(1,0,0,1,0,24.258999999999993)"><svg width="218.7" viewBox="3 -33.5 218.69000244140625 34" height="34" data-palette-color="#0e5ed4"><path d="M16.35 0L3 0 3-0.8 7.05-2.8 7.05-30.2 3-32.2 3-33 16.35-33 16.35-32.2 12.3-30.2 12.3-2.8 16.35-0.8 16.35 0ZM27.8 0L12.3-16.85 26.1-30.5 22.55-32.2 22.55-33 33.35-33 33.35-32.2 30.2-30.95 17.4-18.4 32.8-2.15 35.95-0.8 35.95 0 27.8 0ZM48.9 0L38.1 0 38.1-0.8 41.25-2.45 54.1-33.25 56.85-33.25 69.55-2.6 72.9-0.8 72.9 0 59.7 0 59.7-0.8 64.1-2.55 60.4-11.55 48.35-11.55 44.7-2.5 48.9-0.8 48.9 0ZM54.4-26.35L49.5-14.3 59.3-14.3 54.4-26.35ZM94.2 0.25L92.2 0.25 79.4-30.4 75.95-32.2 75.95-33 89.2-33 89.2-32.2 84.85-30.3 94.2-7.8 94.45-7.8 103.7-30.45 99.55-32.2 99.55-33 110.1-33 110.1-32.2 107.25-30.65 94.2 0.25ZM128.24 0L114.89 0 114.89-0.8 118.99-2.8 118.99-30.2 114.89-32.2 114.89-33 128.24-33 128.24-32.2 124.19-30.2 124.19-2.8 128.24-0.8 128.24 0ZM160.94 0L134.44 0 134.44-0.8 138.49-2.8 138.49-30.2 134.44-32.2 134.44-33 159.54-33 159.54-24.4 158.74-24.4 155.49-30.25 143.74-30.25 143.74-18.4 152.04-18.4 154.59-22.6 155.39-22.6 155.39-11.55 154.59-11.55 152.04-15.65 143.74-15.65 143.74-2.75 156.84-2.75 160.14-9.35 160.94-9.35 160.94 0ZM193.89 0L167.39 0 167.39-0.8 171.44-2.8 171.44-30.2 167.39-32.2 167.39-33 192.49-33 192.49-24.4 191.69-24.4 188.44-30.25 176.69-30.25 176.69-18.4 184.99-18.4 187.54-22.6 188.34-22.6 188.34-11.55 187.54-11.55 184.99-15.65 176.69-15.65 176.69-2.75 189.79-2.75 193.09-9.35 193.89-9.35 193.89 0ZM210.64 0.5L210.64 0.5Q207.49 0.5 205.26-0.1 203.04-0.7 200.69-1.85L200.69-1.85 200.19-10.1 200.99-10.1 203.64-4.65Q205.39-3.2 207.09-2.55 208.79-1.9 210.49-1.9L210.49-1.9Q213.39-1.9 215.06-3.4 216.74-4.9 216.74-7.5L216.74-7.5Q216.74-9.55 215.81-10.78 214.89-12 213.06-12.98 211.24-13.95 208.59-15.25L208.59-15.25Q205.04-16.95 203.14-18.82 201.24-20.7 201.24-24.1L201.24-24.1Q201.24-25.9 202.11-27.58 202.99-29.25 204.49-30.58 205.99-31.9 207.84-32.7 209.69-33.5 211.69-33.5L211.69-33.5Q214.04-33.5 216.09-32.95 218.14-32.4 220.14-31.35L220.14-31.35 220.64-23.35 219.84-23.35 217.24-28.7Q215.64-29.95 214.34-30.5 213.04-31.05 211.39-31.05L211.39-31.05Q209.24-31.05 207.81-29.6 206.39-28.15 206.39-25.95L206.39-25.95Q206.39-23.5 207.91-22.1 209.44-20.7 212.84-19.1L212.84-19.1Q215.84-17.65 217.81-16.32 219.79-15 220.74-13.35 221.69-11.7 221.69-9.15L221.69-9.15Q221.69-6.8 220.69-5 219.69-3.2 218.04-1.98 216.39-0.75 214.46-0.13 212.54 0.5 210.64 0.5Z" opacity="1" transform="matrix(1,0,0,1,0,0)" fill="#0e5ed4" class="undefined-p-0"></path></svg></g><g><svg xmlns="http://www.w3.org/2000/svg" xmlns:xlink="http://www.w3.org/1999/xlink" version="1.1" x="231.688" y="0" viewBox="1.6400001049041748 1 61.36000061035156 62" style="enable-background:new 0 0 64 64;" xml:space="preserve" height="82.51799999999999" width="81.66620210266113" class="icon-s-0" data-fill-palette-color="accent" id="s-0"><g fill="#ed2326" data-fill-palette-color="accent"><path d="M63 45.215c0-1.049-0.441-2.061-1.209-2.774L50.879 32.309C49.276 30.82 47.188 30 45 30c-0.146 0-0.29 0.013-0.435 0.02C44.84 29.401 45 28.72 45 28v-6.184c1.161-0.414 2-1.514 2-2.816 0-1.397-0.963-2.563-2.257-2.896C43.633 9.289 38.642 3.662 32 1.737V1H22v0.737C15.358 3.662 10.367 9.289 9.257 16.104 7.963 16.437 7 17.603 7 19c0 1.302 0.839 2.402 2 2.816V28c0 2.522 1.884 4.592 4.314 4.931 0.838 3.916 3.321 7.222 6.686 9.175v1.036l-5.163 0.794c-4.62 0.711-8.506 4.053-9.9 8.514L1.64 63H30h1 29V48.916C61.711 48.553 63 47.032 63 45.215zM43 22v2.026c-0.584-0.442-1.257-0.773-2-0.924V22H43zM40.952 30.831C40.968 30.554 41 30.278 41 30v-4.816c1.161 0.414 2 1.514 2 2.816C43 29.32 42.138 30.43 40.952 30.831zM42.703 16H32V3.818C37.491 5.628 41.62 10.322 42.703 16zM30 3v13h-6V3H30zM10 18h5v-2h-3.703C12.38 10.322 16.509 5.628 22 3.818V16h-5v2h27c0.551 0 1 0.449 1 1s-0.449 1-1 1H10c-0.551 0-1-0.449-1-1S9.449 18 10 18zM13 22v1.101c-0.743 0.152-1.416 0.482-2 0.924V22H13zM11 28c0-1.302 0.839-2.402 2-2.816V30c0 0.28 0.026 0.553 0.042 0.829C11.859 30.427 11 29.317 11 28zM15 30v-8h5.5 13H39v8c0 0.914-0.106 1.825-0.31 2.709l-9.856 9.152C28.232 41.953 27.614 42 27 42 20.383 42 15 36.617 15 30zM30 53.382l-2 1V48.94c0.435-0.046 0.859-0.113 1.257-0.219l-0.015-0.057c0.241 0.108 0.493 0.196 0.758 0.252V53.382zM26 48.928v5.454l-4.066-2.033-0.644-5.798C22.244 47.67 23.767 48.685 26 48.928zM20.066 53.651L26 56.618V61H14.133l0.847-6.778 2.911-8.732 1.247-0.192L20.066 53.651zM27.454 46.973C27.302 46.982 27.157 47 27 47c-3.778 0-4.826-2.615-5-3.147v-0.792C23.555 43.659 25.237 44 27 44c0.075 0 0.149-0.007 0.224-0.009C27.089 44.384 27 44.793 27 45.215 27 45.853 27.174 46.445 27.454 46.973zM6.846 53.047c1.168-3.738 4.424-6.539 8.295-7.134l0.528-0.081-2.617 7.852L12.119 61H4.36L6.846 53.047zM28 61v-4.382l2-1V61H28zM51 61v-2h-2v2h-8v-8h8v4h2v-6H39v10h-7V48.828c0.539-0.161 1.045-0.426 1.47-0.812l8.723-7.931c1.539-1.399 4.075-1.399 5.614 0l8.724 7.931c0.424 0.386 0.93 0.651 1.469 0.812V61H51zM59.215 47h-0.138c-0.445 0-0.872-0.165-1.201-0.464l-8.723-7.931C48.014 37.57 46.54 37 45 37s-3.014 0.57-4.153 1.605l-8.723 7.93C31.795 46.835 31.368 47 30.923 47h-0.138C29.801 47 29 46.199 29 45.215c0-0.495 0.208-0.972 0.571-1.309l10.912-10.132C41.714 32.63 43.318 32 45 32s3.286 0.63 4.518 1.774l10.912 10.132C60.792 44.243 61 44.72 61 45.215 61 46.199 60.199 47 59.215 47z" fill="#000000" data-fill-palette-color="accent"></path><path d="M45 41c-2.206 0-4 1.794-4 4s1.794 4 4 4 4-1.794 4-4S47.206 41 45 41zM45 47c-1.103 0-2-0.897-2-2s0.897-2 2-2 2 0.897 2 2S46.103 47 45 47z" fill="#000000" data-fill-palette-color="accent"></path><path d="M18 24.5c0 1.378 1.122 2.5 2.5 2.5s2.5-1.122 2.5-2.5S21.878 22 20.5 22 18 23.122 18 24.5zM20.5 24c0.276 0 0.5 0.224 0.5 0.5S20.776 25 20.5 25 20 24.776 20 24.5 20.224 24 20.5 24z" fill="#000000" data-fill-palette-color="accent"></path><path d="M31 24.5c0 1.378 1.122 2.5 2.5 2.5s2.5-1.122 2.5-2.5S34.878 22 33.5 22 31 23.122 31 24.5zM33.5 24c0.276 0 0.5 0.224 0.5 0.5S33.776 25 33.5 25 33 24.776 33 24.5 33.224 24 33.5 24z" fill="#000000" data-fill-palette-color="accent"></path><path d="M35 30h-2c0 3.309-2.691 6-6 6s-6-2.691-6-6h-2c0 4.411 3.589 8 8 8S35 34.411 35 30z" fill="#000000" data-fill-palette-color="accent"></path></g></svg></g><g transform="matrix(1,0,0,1,326.34220210266113,24.258999999999993)"><svg width="416.20000000000005" viewBox="3.25 -33.5 416.1700134277344 34" height="34" data-palette-color="#0e5ed4"><path d="M20 0.5L20 0.5Q14.85 0.5 11.1-1.6 7.35-3.7 5.3-7.35 3.25-11 3.25-15.65L3.25-15.65Q3.25-19.25 4.65-22.45 6.05-25.65 8.47-28.15 10.9-30.65 14.05-32.08 17.2-33.5 20.75-33.5L20.75-33.5Q23.3-33.5 25.05-33.18 26.8-32.85 28.18-32.33 29.55-31.8 30.95-31.1L30.95-31.1 31.25-22.2 30.35-22.2 26.9-28.7Q25.2-29.9 23.83-30.45 22.45-31 20.75-31L20.75-31Q17.3-31 14.55-29.2 11.8-27.4 10.23-24.23 8.65-21.05 8.65-16.9L8.65-16.9Q8.65-12.25 10.18-8.93 11.7-5.6 14.3-3.85 16.9-2.1 20.05-2.1L20.05-2.1Q22.65-2.1 24.43-2.8 26.2-3.5 27.6-4.45L27.6-4.45 30.95-10.05 31.8-10.05 31.2-2Q29-0.9 26.5-0.2 24 0.5 20 0.5ZM56.15 0.5L56.15 0.5Q52.55 0.5 49.47-0.78 46.4-2.05 44.12-4.33 41.85-6.6 40.6-9.7 39.35-12.8 39.35-16.5L39.35-16.5Q39.35-20.2 40.6-23.3 41.85-26.4 44.12-28.68 46.4-30.95 49.47-32.23 52.55-33.5 56.15-33.5L56.15-33.5Q59.75-33.5 62.82-32.23 65.9-30.95 68.17-28.68 70.45-26.4 71.72-23.3 73-20.2 73-16.5L73-16.5Q73-12.8 71.72-9.7 70.45-6.6 68.17-4.33 65.9-2.05 62.82-0.78 59.75 0.5 56.15 0.5ZM57.15-2L57.15-2Q60.2-2 62.5-3.6 64.8-5.2 66.1-8.1 67.4-11 67.4-14.95L67.4-14.95Q67.4-19.8 65.8-23.43 64.2-27.05 61.45-29.05 58.7-31.05 55.35-31.05L55.35-31.05Q52.3-31.05 49.95-29.48 47.6-27.9 46.27-25 44.95-22.1 44.95-18.15L44.95-18.15Q44.95-13.3 46.57-9.65 48.2-6 50.97-4 53.75-2 57.15-2ZM91.75 0L79.05 0 79.05-0.8 83.09-2.8 83.09-30.1 79.09-32.2 79.09-33 86.95-33 106.09-9.45 106.09-30.25 100.95-32.2 100.95-33 113.59-33 113.59-32.2 109.59-30.25 109.59 0.25 107.45 0.25 86.59-25.35 86.59-2.75 91.75-0.8 91.75 0ZM129.69 0.5L129.69 0.5Q126.54 0.5 124.32-0.1 122.09-0.7 119.74-1.85L119.74-1.85 119.24-10.1 120.04-10.1 122.69-4.65Q124.44-3.2 126.14-2.55 127.84-1.9 129.54-1.9L129.54-1.9Q132.44-1.9 134.12-3.4 135.79-4.9 135.79-7.5L135.79-7.5Q135.79-9.55 134.87-10.78 133.94-12 132.12-12.98 130.29-13.95 127.64-15.25L127.64-15.25Q124.09-16.95 122.19-18.82 120.29-20.7 120.29-24.1L120.29-24.1Q120.29-25.9 121.17-27.58 122.04-29.25 123.54-30.58 125.04-31.9 126.89-32.7 128.74-33.5 130.74-33.5L130.74-33.5Q133.09-33.5 135.14-32.95 137.19-32.4 139.19-31.35L139.19-31.35 139.69-23.35 138.89-23.35 136.29-28.7Q134.69-29.95 133.39-30.5 132.09-31.05 130.44-31.05L130.44-31.05Q128.29-31.05 126.87-29.6 125.44-28.15 125.44-25.95L125.44-25.95Q125.44-23.5 126.97-22.1 128.49-20.7 131.89-19.1L131.89-19.1Q134.89-17.65 136.87-16.32 138.84-15 139.79-13.35 140.74-11.7 140.74-9.15L140.74-9.15Q140.74-6.8 139.74-5 138.74-3.2 137.09-1.98 135.44-0.75 133.52-0.13 131.59 0.5 129.69 0.5ZM168.14 0L152.79 0 152.79-0.8 157.84-2.8 157.84-30.25 149.94-30.25 146.39-22.7 145.59-22.7 145.59-33 175.29-33 175.29-22.7 174.49-22.7 170.99-30.25 163.04-30.25 163.04-2.8 168.14-0.8 168.14 0ZM193.49 0L180.44 0 180.44-0.8 184.49-2.8 184.49-30.2 180.44-32.2 180.44-33 194.34-33Q199.59-33 202.61-30.83 205.64-28.65 205.64-24.85L205.64-24.85Q205.64-22.05 203.74-19.9 201.84-17.75 198.74-16.6L198.74-16.6 208.19-2.65 211.54-0.8 211.54 0 203.49 0 193.89-15.2 189.74-15.2 189.74-2.85 193.49-0.8 193.49 0ZM192.69-30.25L192.69-30.25 189.74-30.25 189.74-17.85 192.99-17.85Q196.09-17.85 198.11-19.63 200.14-21.4 200.14-24.15L200.14-24.15Q200.14-27 198.16-28.63 196.19-30.25 192.69-30.25ZM231.74 0.5L231.74 0.5Q227.89 0.5 224.84-0.9 221.79-2.3 220.06-5.3 218.34-8.3 218.34-13.15L218.34-13.15 218.34-30.2 214.29-32.2 214.29-33 227.64-33 227.64-32.2 223.59-30.2 223.59-13.7Q223.59-9.55 224.89-7.13 226.19-4.7 228.39-3.65 230.59-2.6 233.34-2.6L233.34-2.6Q235.54-2.6 237.41-3.53 239.29-4.45 240.41-6.53 241.54-8.6 241.54-11.95L241.54-11.95 241.54-30.3 236.64-32.2 236.64-33 249.09-33 249.09-32.2 245.04-30.25 245.04-13.15Q245.04-8.3 243.31-5.3 241.59-2.3 238.59-0.9 235.59 0.5 231.74 0.5ZM272.08 0.5L272.08 0.5Q266.93 0.5 263.18-1.6 259.43-3.7 257.38-7.35 255.33-11 255.33-15.65L255.33-15.65Q255.33-19.25 256.73-22.45 258.13-25.65 260.56-28.15 262.98-30.65 266.13-32.08 269.28-33.5 272.83-33.5L272.83-33.5Q275.38-33.5 277.13-33.18 278.88-32.85 280.26-32.33 281.63-31.8 283.03-31.1L283.03-31.1 283.33-22.2 282.43-22.2 278.98-28.7Q277.28-29.9 275.91-30.45 274.53-31 272.83-31L272.83-31Q269.38-31 266.63-29.2 263.88-27.4 262.31-24.23 260.73-21.05 260.73-16.9L260.73-16.9Q260.73-12.25 262.26-8.93 263.78-5.6 266.38-3.85 268.98-2.1 272.13-2.1L272.13-2.1Q274.73-2.1 276.51-2.8 278.28-3.5 279.68-4.45L279.68-4.45 283.03-10.05 283.88-10.05 283.28-2Q281.08-0.9 278.58-0.2 276.08 0.5 272.08 0.5ZM312.88 0L297.53 0 297.53-0.8 302.58-2.8 302.58-30.25 294.68-30.25 291.13-22.7 290.33-22.7 290.33-33 320.03-33 320.03-22.7 319.23-22.7 315.73-30.25 307.78-30.25 307.78-2.8 312.88-0.8 312.88 0ZM338.73 0L325.38 0 325.38-0.8 329.48-2.8 329.48-30.2 325.38-32.2 325.38-33 338.73-33 338.73-32.2 334.68-30.2 334.68-2.8 338.73-0.8 338.73 0ZM361.98 0.5L361.98 0.5Q358.38 0.5 355.3-0.78 352.23-2.05 349.95-4.33 347.68-6.6 346.43-9.7 345.18-12.8 345.18-16.5L345.18-16.5Q345.18-20.2 346.43-23.3 347.68-26.4 349.95-28.68 352.23-30.95 355.3-32.23 358.38-33.5 361.98-33.5L361.98-33.5Q365.58-33.5 368.65-32.23 371.73-30.95 374-28.68 376.28-26.4 377.55-23.3 378.83-20.2 378.83-16.5L378.83-16.5Q378.83-12.8 377.55-9.7 376.28-6.6 374-4.33 371.73-2.05 368.65-0.78 365.58 0.5 361.98 0.5ZM362.98-2L362.98-2Q366.03-2 368.33-3.6 370.63-5.2 371.93-8.1 373.23-11 373.23-14.95L373.23-14.95Q373.23-19.8 371.63-23.43 370.03-27.05 367.28-29.05 364.53-31.05 361.18-31.05L361.18-31.05Q358.13-31.05 355.78-29.48 353.43-27.9 352.1-25 350.78-22.1 350.78-18.15L350.78-18.15Q350.78-13.3 352.4-9.65 354.03-6 356.8-4 359.58-2 362.98-2ZM397.57 0L384.87 0 384.87-0.8 388.92-2.8 388.92-30.1 384.92-32.2 384.92-33 392.77-33 411.92-9.45 411.92-30.25 406.77-32.2 406.77-33 419.42-33 419.42-32.2 415.42-30.25 415.42 0.25 413.27 0.25 392.42-25.35 392.42-2.75 397.57-0.8 397.57 0Z" opacity="1" transform="matrix(1,0,0,1,0,0)" fill="#0e5ed4" class="undefined-p-1"></path></svg></g></svg></g></svg></g><g transform="matrix(1,0,0,1,186.59188557015904,90.54458399999999)"><svg viewBox="0 0 369.35843096234316 21.012" height="21.012" width="369.35843096234316"><g transform="matrix(1,0,0,1,0,0)"><svg width="369.35843096234316" viewBox="4.300000190734863 -37.20000076293945 840.1600341796875 47.80000305175781" height="21.012" data-palette-color="#ed2326"><path d="M4.3 0L4.3-34.9 19.75-34.9Q24.1-34.9 26.58-32.45 29.05-30 29.05-25.9L29.05-25.9Q29.05-23.95 28.5-22.58 27.95-21.2 27.1-20.33 26.25-19.45 25.15-19.03 24.05-18.6 23-18.5L23-18.5 23-18.2Q24.05-18.15 25.33-17.7 26.6-17.25 27.7-16.28 28.8-15.3 29.55-13.78 30.3-12.25 30.3-10.05L30.3-10.05Q30.3-7.95 29.63-6.1 28.95-4.25 27.75-2.9 26.55-1.55 24.9-0.78 23.25 0 21.3 0L21.3 0 4.3 0ZM9.95-15.45L9.95-4.85 19.65-4.85Q21.85-4.85 23.1-6 24.35-7.15 24.35-9.3L24.35-9.3 24.35-11Q24.35-13.15 23.1-14.3 21.85-15.45 19.65-15.45L19.65-15.45 9.95-15.45ZM9.95-30.05L9.95-20.15 18.7-20.15Q20.8-20.15 21.95-21.23 23.1-22.3 23.1-24.3L23.1-24.3 23.1-25.9Q23.1-27.9 21.95-28.98 20.8-30.05 18.7-30.05L18.7-30.05 9.95-30.05ZM52.6 0L52.6-4.3 52.4-4.3Q52.05-3.35 51.47-2.45 50.9-1.55 50.02-0.88 49.15-0.2 47.92 0.2 46.7 0.6 45.1 0.6L45.1 0.6Q41.05 0.6 38.82-2 36.6-4.6 36.6-9.45L36.6-9.45 36.6-26 42.05-26 42.05-10.15Q42.05-4.1 47.05-4.1L47.05-4.1Q48.1-4.1 49.1-4.38 50.1-4.65 50.87-5.2 51.65-5.75 52.12-6.6 52.6-7.45 52.6-8.6L52.6-8.6 52.6-26 58.05-26 58.05 0 52.6 0ZM68.6-30.65L68.6-30.65Q66.9-30.65 66.12-31.45 65.35-32.25 65.35-33.5L65.35-33.5 65.35-34.35Q65.35-35.6 66.12-36.4 66.9-37.2 68.6-37.2L68.6-37.2Q70.3-37.2 71.05-36.4 71.8-35.6 71.8-34.35L71.8-34.35 71.8-33.5Q71.8-32.25 71.05-31.45 70.3-30.65 68.6-30.65ZM65.85 0L65.85-26 71.3-26 71.3 0 65.85 0ZM88.14 0L84.64 0Q81.84 0 80.47-1.43 79.09-2.85 79.09-5.4L79.09-5.4 79.09-37 84.54-37 84.54-4.45 88.14-4.45 88.14 0ZM109.69 0L109.69-4.3 109.44-4.3Q108.59-2 106.67-0.7 104.74 0.6 102.14 0.6L102.14 0.6Q97.19 0.6 94.49-2.98 91.79-6.55 91.79-13L91.79-13Q91.79-19.45 94.49-23.03 97.19-26.6 102.14-26.6L102.14-26.6Q104.74-26.6 106.67-25.33 108.59-24.05 109.44-21.7L109.44-21.7 109.69-21.7 109.69-37 115.14-37 115.14 0 109.69 0ZM103.79-4.1L103.79-4.1Q106.29-4.1 107.99-5.33 109.69-6.55 109.69-8.55L109.69-8.55 109.69-17.45Q109.69-19.45 107.99-20.68 106.29-21.9 103.79-21.9L103.79-21.9Q100.94-21.9 99.24-20.08 97.54-18.25 97.54-15.25L97.54-15.25 97.54-10.75Q97.54-7.75 99.24-5.93 100.94-4.1 103.79-4.1ZM125.69-30.65L125.69-30.65Q123.99-30.65 123.21-31.45 122.44-32.25 122.44-33.5L122.44-33.5 122.44-34.35Q122.44-35.6 123.21-36.4 123.99-37.2 125.69-37.2L125.69-37.2Q127.39-37.2 128.14-36.4 128.89-35.6 128.89-34.35L128.89-34.35 128.89-33.5Q128.89-32.25 128.14-31.45 127.39-30.65 125.69-30.65ZM122.94 0L122.94-26 128.39-26 128.39 0 122.94 0ZM141.64 0L136.19 0 136.19-26 141.64-26 141.64-21.7 141.89-21.7Q142.74-23.8 144.46-25.2 146.19-26.6 149.19-26.6L149.19-26.6Q153.19-26.6 155.41-23.98 157.64-21.35 157.64-16.5L157.64-16.5 157.64 0 152.19 0 152.19-15.8Q152.19-21.9 147.29-21.9L147.29-21.9Q146.24-21.9 145.21-21.63 144.19-21.35 143.39-20.8 142.59-20.25 142.11-19.4 141.64-18.55 141.64-17.4L141.64-17.4 141.64 0ZM187.98 2.45L187.98 2.45Q187.98 6.5 184.88 8.55 181.78 10.6 174.78 10.6L174.78 10.6Q171.58 10.6 169.36 10.18 167.13 9.75 165.71 8.95 164.28 8.15 163.63 7 162.98 5.85 162.98 4.35L162.98 4.35Q162.98 2.2 164.16 1 165.33-0.2 167.43-0.65L167.43-0.65 167.43-1.2Q164.48-2.15 164.48-5.2L164.48-5.2Q164.48-7.2 165.83-8.28 167.18-9.35 169.08-9.8L169.08-9.8 169.08-10Q166.78-11.1 165.56-13.08 164.33-15.05 164.33-17.7L164.33-17.7Q164.33-21.7 167.01-24.15 169.68-26.6 174.68-26.6L174.68-26.6Q177.43-26.6 179.38-25.8L179.38-25.8 179.38-26.5Q179.38-28.25 180.21-29.23 181.03-30.2 182.78-30.2L182.78-30.2 186.78-30.2 186.78-25.8 181.48-25.8 181.48-24.75Q183.23-23.6 184.18-21.78 185.13-19.95 185.13-17.7L185.13-17.7Q185.13-13.75 182.43-11.33 179.73-8.9 174.73-8.9L174.73-8.9Q172.83-8.9 171.33-9.3L171.33-9.3Q170.33-8.95 169.58-8.33 168.83-7.7 168.83-6.7L168.83-6.7Q168.83-5.65 169.78-5.2 170.73-4.75 172.48-4.75L172.48-4.75 178.88-4.75Q183.68-4.75 185.83-2.83 187.98-0.9 187.98 2.45ZM182.88 3.05L182.88 3.05Q182.88 1.7 181.86 0.9 180.83 0.1 178.13 0.1L178.13 0.1 169.33 0.1Q167.53 1.15 167.53 3.1L167.53 3.1Q167.53 4.7 168.81 5.68 170.08 6.65 173.13 6.65L173.13 6.65 176.53 6.65Q182.88 6.65 182.88 3.05ZM174.73-12.85L174.73-12.85Q177.13-12.85 178.46-13.93 179.78-15 179.78-17.25L179.78-17.25 179.78-18.25Q179.78-20.5 178.46-21.58 177.13-22.65 174.73-22.65L174.73-22.65Q172.33-22.65 171.01-21.58 169.68-20.5 169.68-18.25L169.68-18.25 169.68-17.25Q169.68-15 171.01-13.93 172.33-12.85 174.73-12.85ZM204.23 0L204.23-34.9 216.58-34.9Q219.93-34.9 222.65-33.8 225.38-32.7 227.3-30.53 229.23-28.35 230.28-25.08 231.33-21.8 231.33-17.45L231.33-17.45Q231.33-13.1 230.28-9.83 229.23-6.55 227.3-4.38 225.38-2.2 222.65-1.1 219.93 0 216.58 0L216.58 0 204.23 0ZM209.88-5L216.58-5Q220.48-5 222.88-7.45 225.28-9.9 225.28-14.65L225.28-14.65 225.28-20.25Q225.28-25 222.88-27.45 220.48-29.9 216.58-29.9L216.58-29.9 209.88-29.9 209.88-5ZM243.43 0L237.98 0 237.98-26 243.43-26 243.43-21 243.68-21Q244.23-23 245.98-24.5 247.73-26 250.83-26L250.83-26 252.28-26 252.28-20.75 250.13-20.75Q246.88-20.75 245.15-19.7 243.43-18.65 243.43-16.6L243.43-16.6 243.43 0ZM267.07 0.6L267.07 0.6Q264.27 0.6 262.07-0.35 259.87-1.3 258.32-3.08 256.77-4.85 255.95-7.38 255.12-9.9 255.12-13L255.12-13Q255.12-16.1 255.95-18.63 256.77-21.15 258.32-22.93 259.87-24.7 262.07-25.65 264.27-26.6 267.07-26.6L267.07-26.6Q269.92-26.6 272.1-25.6 274.27-24.6 275.72-22.83 277.17-21.05 277.9-18.7 278.62-16.35 278.62-13.65L278.62-13.65 278.62-11.6 260.77-11.6 260.77-10.75Q260.77-7.75 262.55-5.83 264.32-3.9 267.62-3.9L267.62-3.9Q270.02-3.9 271.67-4.95 273.32-6 274.47-7.8L274.47-7.8 277.67-4.65Q276.22-2.25 273.47-0.83 270.72 0.6 267.07 0.6ZM267.07-22.35L267.07-22.35Q265.67-22.35 264.5-21.85 263.32-21.35 262.5-20.45 261.67-19.55 261.22-18.3 260.77-17.05 260.77-15.55L260.77-15.55 260.77-15.2 272.87-15.2 272.87-15.7Q272.87-18.7 271.32-20.53 269.77-22.35 267.07-22.35ZM306.77 0L303.72 0Q301.57 0 300.42-1.23 299.27-2.45 299.02-4.35L299.02-4.35 298.77-4.35Q298.02-1.9 296.02-0.65 294.02 0.6 291.17 0.6L291.17 0.6Q287.12 0.6 284.95-1.5 282.77-3.6 282.77-7.15L282.77-7.15Q282.77-11.05 285.6-13 288.42-14.95 293.87-14.95L293.87-14.95 298.57-14.95 298.57-17.15Q298.57-19.55 297.27-20.85 295.97-22.15 293.22-22.15L293.22-22.15Q290.92-22.15 289.47-21.15 288.02-20.15 287.02-18.6L287.02-18.6 283.77-21.55Q285.07-23.75 287.42-25.18 289.77-26.6 293.57-26.6L293.57-26.6Q298.62-26.6 301.32-24.25 304.02-21.9 304.02-17.5L304.02-17.5 304.02-4.45 306.77-4.45 306.77 0ZM292.72-3.55L292.72-3.55Q295.27-3.55 296.92-4.67 298.57-5.8 298.57-7.7L298.57-7.7 298.57-11.45 293.97-11.45Q288.32-11.45 288.32-7.95L288.32-7.95 288.32-7.05Q288.32-5.3 289.5-4.42 290.67-3.55 292.72-3.55ZM317.57 0L312.12 0 312.12-26 317.57-26 317.57-21.7 317.82-21.7Q318.22-22.7 318.79-23.6 319.37-24.5 320.19-25.18 321.02-25.85 322.14-26.23 323.27-26.6 324.77-26.6L324.77-26.6Q327.42-26.6 329.47-25.3 331.52-24 332.47-21.3L332.47-21.3 332.62-21.3Q333.32-23.5 335.32-25.05 337.32-26.6 340.47-26.6L340.47-26.6Q344.37-26.6 346.52-23.98 348.67-21.35 348.67-16.5L348.67-16.5 348.67 0 343.22 0 343.22-15.85Q343.22-18.85 342.07-20.38 340.92-21.9 338.42-21.9L338.42-21.9Q337.37-21.9 336.42-21.63 335.47-21.35 334.74-20.8 334.02-20.25 333.57-19.4 333.12-18.55 333.12-17.45L333.12-17.45 333.12 0 327.67 0 327.67-15.85Q327.67-21.9 322.92-21.9L322.92-21.9Q321.92-21.9 320.94-21.63 319.97-21.35 319.22-20.8 318.47-20.25 318.02-19.4 317.57-18.55 317.57-17.45L317.57-17.45 317.57 0ZM364.47 0.6L364.47 0.6Q360.77 0.6 358.27-0.7 355.77-2 353.92-4.3L353.92-4.3 357.42-7.5Q358.87-5.75 360.64-4.78 362.42-3.8 364.77-3.8L364.77-3.8Q367.17-3.8 368.34-4.73 369.52-5.65 369.52-7.3L369.52-7.3Q369.52-8.55 368.69-9.43 367.87-10.3 365.82-10.55L365.82-10.55 363.42-10.85Q359.42-11.35 357.14-13.18 354.87-15 354.87-18.6L354.87-18.6Q354.87-20.5 355.57-21.98 356.27-23.45 357.54-24.48 358.82-25.5 360.59-26.05 362.37-26.6 364.52-26.6L364.52-26.6Q368.02-26.6 370.24-25.5 372.47-24.4 374.22-22.45L374.22-22.45 370.87-19.25Q369.87-20.45 368.24-21.33 366.62-22.2 364.52-22.2L364.52-22.2Q362.27-22.2 361.19-21.3 360.12-20.4 360.12-18.95L360.12-18.95Q360.12-17.45 361.07-16.7 362.02-15.95 364.12-15.6L364.12-15.6 366.52-15.3Q370.82-14.65 372.79-12.78 374.77-10.9 374.77-7.75L374.77-7.75Q374.77-5.85 374.04-4.33 373.32-2.8 371.97-1.7 370.62-0.6 368.72 0 366.82 0.6 364.47 0.6ZM383.96-6.95L383.96-6.95Q385.81-6.95 386.71-6 387.61-5.05 387.61-3.55L387.61-3.55 387.61-2.75Q387.61-0.3 386.29 2.38 384.96 5.05 382.71 6.9L382.71 6.9 378.66 6.9Q380.26 5.3 381.31 3.8 382.36 2.3 382.91 0.45L382.91 0.45Q381.61 0.2 380.96-0.68 380.31-1.55 380.31-2.75L380.31-2.75 380.31-3.55Q380.31-5.05 381.21-6 382.11-6.95 383.96-6.95ZM429.66 0L407.31 0 407.31-34.9 429.66-34.9 429.66-29.9 412.96-29.9 412.96-20.2 428.11-20.2 428.11-15.2 412.96-15.2 412.96-5 429.66-5 429.66 0ZM442.01 0L436.56 0 436.56-26 442.01-26 442.01-21.7 442.26-21.7Q443.11-23.8 444.83-25.2 446.56-26.6 449.56-26.6L449.56-26.6Q453.56-26.6 455.78-23.98 458.01-21.35 458.01-16.5L458.01-16.5 458.01 0 452.56 0 452.56-15.8Q452.56-21.9 447.66-21.9L447.66-21.9Q446.61-21.9 445.58-21.63 444.56-21.35 443.76-20.8 442.96-20.25 442.48-19.4 442.01-18.55 442.01-17.4L442.01-17.4 442.01 0ZM488.35 2.45L488.35 2.45Q488.35 6.5 485.25 8.55 482.15 10.6 475.15 10.6L475.15 10.6Q471.95 10.6 469.73 10.18 467.5 9.75 466.08 8.95 464.65 8.15 464 7 463.35 5.85 463.35 4.35L463.35 4.35Q463.35 2.2 464.53 1 465.7-0.2 467.8-0.65L467.8-0.65 467.8-1.2Q464.85-2.15 464.85-5.2L464.85-5.2Q464.85-7.2 466.2-8.28 467.55-9.35 469.45-9.8L469.45-9.8 469.45-10Q467.15-11.1 465.93-13.08 464.7-15.05 464.7-17.7L464.7-17.7Q464.7-21.7 467.38-24.15 470.05-26.6 475.05-26.6L475.05-26.6Q477.8-26.6 479.75-25.8L479.75-25.8 479.75-26.5Q479.75-28.25 480.58-29.23 481.4-30.2 483.15-30.2L483.15-30.2 487.15-30.2 487.15-25.8 481.85-25.8 481.85-24.75Q483.6-23.6 484.55-21.78 485.5-19.95 485.5-17.7L485.5-17.7Q485.5-13.75 482.8-11.33 480.1-8.9 475.1-8.9L475.1-8.9Q473.2-8.9 471.7-9.3L471.7-9.3Q470.7-8.95 469.95-8.33 469.2-7.7 469.2-6.7L469.2-6.7Q469.2-5.65 470.15-5.2 471.1-4.75 472.85-4.75L472.85-4.75 479.25-4.75Q484.05-4.75 486.2-2.83 488.35-0.9 488.35 2.45ZM483.25 3.05L483.25 3.05Q483.25 1.7 482.23 0.9 481.2 0.1 478.5 0.1L478.5 0.1 469.7 0.1Q467.9 1.15 467.9 3.1L467.9 3.1Q467.9 4.7 469.18 5.68 470.45 6.65 473.5 6.65L473.5 6.65 476.9 6.65Q483.25 6.65 483.25 3.05ZM475.1-12.85L475.1-12.85Q477.5-12.85 478.83-13.93 480.15-15 480.15-17.25L480.15-17.25 480.15-18.25Q480.15-20.5 478.83-21.58 477.5-22.65 475.1-22.65L475.1-22.65Q472.7-22.65 471.38-21.58 470.05-20.5 470.05-18.25L470.05-18.25 470.05-17.25Q470.05-15 471.38-13.93 472.7-12.85 475.1-12.85ZM495.15-30.65L495.15-30.65Q493.45-30.65 492.68-31.45 491.9-32.25 491.9-33.5L491.9-33.5 491.9-34.35Q491.9-35.6 492.68-36.4 493.45-37.2 495.15-37.2L495.15-37.2Q496.85-37.2 497.6-36.4 498.35-35.6 498.35-34.35L498.35-34.35 498.35-33.5Q498.35-32.25 497.6-31.45 496.85-30.65 495.15-30.65ZM492.4 0L492.4-26 497.85-26 497.85 0 492.4 0ZM511.1 0L505.65 0 505.65-26 511.1-26 511.1-21.7 511.35-21.7Q512.2-23.8 513.92-25.2 515.65-26.6 518.65-26.6L518.65-26.6Q522.65-26.6 524.87-23.98 527.1-21.35 527.1-16.5L527.1-16.5 527.1 0 521.65 0 521.65-15.8Q521.65-21.9 516.75-21.9L516.75-21.9Q515.7-21.9 514.67-21.63 513.65-21.35 512.85-20.8 512.05-20.25 511.57-19.4 511.1-18.55 511.1-17.4L511.1-17.4 511.1 0ZM544.85 0.6L544.85 0.6Q542.04 0.6 539.85-0.35 537.64-1.3 536.1-3.08 534.54-4.85 533.72-7.38 532.89-9.9 532.89-13L532.89-13Q532.89-16.1 533.72-18.63 534.54-21.15 536.1-22.93 537.64-24.7 539.85-25.65 542.04-26.6 544.85-26.6L544.85-26.6Q547.7-26.6 549.87-25.6 552.04-24.6 553.5-22.83 554.95-21.05 555.67-18.7 556.39-16.35 556.39-13.65L556.39-13.65 556.39-11.6 538.54-11.6 538.54-10.75Q538.54-7.75 540.32-5.83 542.1-3.9 545.39-3.9L545.39-3.9Q547.79-3.9 549.45-4.95 551.1-6 552.25-7.8L552.25-7.8 555.45-4.65Q554-2.25 551.25-0.83 548.5 0.6 544.85 0.6ZM544.85-22.35L544.85-22.35Q543.45-22.35 542.27-21.85 541.1-21.35 540.27-20.45 539.45-19.55 539-18.3 538.54-17.05 538.54-15.55L538.54-15.55 538.54-15.2 550.64-15.2 550.64-15.7Q550.64-18.7 549.1-20.53 547.54-22.35 544.85-22.35ZM572.64 0.6L572.64 0.6Q569.84 0.6 567.64-0.35 565.44-1.3 563.89-3.08 562.34-4.85 561.52-7.38 560.69-9.9 560.69-13L560.69-13Q560.69-16.1 561.52-18.63 562.34-21.15 563.89-22.93 565.44-24.7 567.64-25.65 569.84-26.6 572.64-26.6L572.64-26.6Q575.49-26.6 577.67-25.6 579.84-24.6 581.29-22.83 582.74-21.05 583.47-18.7 584.19-16.35 584.19-13.65L584.19-13.65 584.19-11.6 566.34-11.6 566.34-10.75Q566.34-7.75 568.12-5.83 569.89-3.9 573.19-3.9L573.19-3.9Q575.59-3.9 577.24-4.95 578.89-6 580.04-7.8L580.04-7.8 583.24-4.65Q581.79-2.25 579.04-0.83 576.29 0.6 572.64 0.6ZM572.64-22.35L572.64-22.35Q571.24-22.35 570.07-21.85 568.89-21.35 568.07-20.45 567.24-19.55 566.79-18.3 566.34-17.05 566.34-15.55L566.34-15.55 566.34-15.2 578.44-15.2 578.44-15.7Q578.44-18.7 576.89-20.53 575.34-22.35 572.64-22.35ZM595.69 0L590.24 0 590.24-26 595.69-26 595.69-21 595.94-21Q596.49-23 598.24-24.5 599.99-26 603.09-26L603.09-26 604.54-26 604.54-20.75 602.39-20.75Q599.14-20.75 597.41-19.7 595.69-18.65 595.69-16.6L595.69-16.6 595.69 0ZM612.14-30.65L612.14-30.65Q610.44-30.65 609.66-31.45 608.89-32.25 608.89-33.5L608.89-33.5 608.89-34.35Q608.89-35.6 609.66-36.4 610.44-37.2 612.14-37.2L612.14-37.2Q613.84-37.2 614.59-36.4 615.34-35.6 615.34-34.35L615.34-34.35 615.34-33.5Q615.34-32.25 614.59-31.45 613.84-30.65 612.14-30.65ZM609.39 0L609.39-26 614.84-26 614.84 0 609.39 0ZM628.08 0L622.63 0 622.63-26 628.08-26 628.08-21.7 628.33-21.7Q629.18-23.8 630.91-25.2 632.63-26.6 635.63-26.6L635.63-26.6Q639.63-26.6 641.86-23.98 644.08-21.35 644.08-16.5L644.08-16.5 644.08 0 638.63 0 638.63-15.8Q638.63-21.9 633.73-21.9L633.73-21.9Q632.68-21.9 631.66-21.63 630.63-21.35 629.83-20.8 629.03-20.25 628.56-19.4 628.08-18.55 628.08-17.4L628.08-17.4 628.08 0ZM674.43 2.45L674.43 2.45Q674.43 6.5 671.33 8.55 668.23 10.6 661.23 10.6L661.23 10.6Q658.03 10.6 655.81 10.18 653.58 9.75 652.16 8.95 650.73 8.15 650.08 7 649.43 5.85 649.43 4.35L649.43 4.35Q649.43 2.2 650.61 1 651.78-0.2 653.88-0.65L653.88-0.65 653.88-1.2Q650.93-2.15 650.93-5.2L650.93-5.2Q650.93-7.2 652.28-8.28 653.63-9.35 655.53-9.8L655.53-9.8 655.53-10Q653.23-11.1 652.01-13.08 650.78-15.05 650.78-17.7L650.78-17.7Q650.78-21.7 653.46-24.15 656.13-26.6 661.13-26.6L661.13-26.6Q663.88-26.6 665.83-25.8L665.83-25.8 665.83-26.5Q665.83-28.25 666.66-29.23 667.48-30.2 669.23-30.2L669.23-30.2 673.23-30.2 673.23-25.8 667.93-25.8 667.93-24.75Q669.68-23.6 670.63-21.78 671.58-19.95 671.58-17.7L671.58-17.7Q671.58-13.75 668.88-11.33 666.18-8.9 661.18-8.9L661.18-8.9Q659.28-8.9 657.78-9.3L657.78-9.3Q656.78-8.95 656.03-8.33 655.28-7.7 655.28-6.7L655.28-6.7Q655.28-5.65 656.23-5.2 657.18-4.75 658.93-4.75L658.93-4.75 665.33-4.75Q670.13-4.75 672.28-2.83 674.43-0.9 674.43 2.45ZM669.33 3.05L669.33 3.05Q669.33 1.7 668.31 0.9 667.28 0.1 664.58 0.1L664.58 0.1 655.78 0.1Q653.98 1.15 653.98 3.1L653.98 3.1Q653.98 4.7 655.26 5.68 656.53 6.65 659.58 6.65L659.58 6.65 662.98 6.65Q669.33 6.65 669.33 3.05ZM661.18-12.85L661.18-12.85Q663.58-12.85 664.91-13.93 666.23-15 666.23-17.25L666.23-17.25 666.23-18.25Q666.23-20.5 664.91-21.58 663.58-22.65 661.18-22.65L661.18-22.65Q658.78-22.65 657.46-21.58 656.13-20.5 656.13-18.25L656.13-18.25 656.13-17.25Q656.13-15 657.46-13.93 658.78-12.85 661.18-12.85ZM696.33-14.1L696.33 0 690.68 0 690.68-34.9 705.73-34.9Q710.43-34.9 713.13-32.08 715.83-29.25 715.83-24.4L715.83-24.4Q715.83-20.65 714.1-18.18 712.38-15.7 709.03-14.7L709.03-14.7 716.58 0 710.28 0 703.28-14.1 696.33-14.1ZM696.33-18.85L705.33-18.85Q707.48-18.85 708.68-19.98 709.88-21.1 709.88-23.2L709.88-23.2 709.88-25.6Q709.88-27.7 708.68-28.83 707.48-29.95 705.33-29.95L705.33-29.95 696.33-29.95 696.33-18.85ZM732.47 0.6L732.47 0.6Q729.67 0.6 727.47-0.35 725.27-1.3 723.72-3.08 722.17-4.85 721.35-7.38 720.52-9.9 720.52-13L720.52-13Q720.52-16.1 721.35-18.63 722.17-21.15 723.72-22.93 725.27-24.7 727.47-25.65 729.67-26.6 732.47-26.6L732.47-26.6Q735.32-26.6 737.5-25.6 739.67-24.6 741.12-22.83 742.57-21.05 743.3-18.7 744.02-16.35 744.02-13.65L744.02-13.65 744.02-11.6 726.17-11.6 726.17-10.75Q726.17-7.75 727.95-5.83 729.72-3.9 733.02-3.9L733.02-3.9Q735.42-3.9 737.07-4.95 738.72-6 739.87-7.8L739.87-7.8 743.07-4.65Q741.62-2.25 738.87-0.83 736.12 0.6 732.47 0.6ZM732.47-22.35L732.47-22.35Q731.07-22.35 729.9-21.85 728.72-21.35 727.9-20.45 727.07-19.55 726.62-18.3 726.17-17.05 726.17-15.55L726.17-15.55 726.17-15.2 738.27-15.2 738.27-15.7Q738.27-18.7 736.72-20.53 735.17-22.35 732.47-22.35ZM772.17 0L769.12 0Q766.97 0 765.82-1.23 764.67-2.45 764.42-4.35L764.42-4.35 764.17-4.35Q763.42-1.9 761.42-0.65 759.42 0.6 756.57 0.6L756.57 0.6Q752.52 0.6 750.35-1.5 748.17-3.6 748.17-7.15L748.17-7.15Q748.17-11.05 751-13 753.82-14.95 759.27-14.95L759.27-14.95 763.97-14.95 763.97-17.15Q763.97-19.55 762.67-20.85 761.37-22.15 758.62-22.15L758.62-22.15Q756.32-22.15 754.87-21.15 753.42-20.15 752.42-18.6L752.42-18.6 749.17-21.55Q750.47-23.75 752.82-25.18 755.17-26.6 758.97-26.6L758.97-26.6Q764.02-26.6 766.72-24.25 769.42-21.9 769.42-17.5L769.42-17.5 769.42-4.45 772.17-4.45 772.17 0ZM758.12-3.55L758.12-3.55Q760.67-3.55 762.32-4.67 763.97-5.8 763.97-7.7L763.97-7.7 763.97-11.45 759.37-11.45Q753.72-11.45 753.72-7.95L753.72-7.95 753.72-7.05Q753.72-5.3 754.9-4.42 756.07-3.55 758.12-3.55ZM786.57 0L783.07 0Q780.27 0 778.89-1.43 777.52-2.85 777.52-5.4L777.52-5.4 777.52-37 782.97-37 782.97-4.45 786.57-4.45 786.57 0ZM794.52-30.65L794.52-30.65Q792.82-30.65 792.04-31.45 791.27-32.25 791.27-33.5L791.27-33.5 791.27-34.35Q791.27-35.6 792.04-36.4 792.82-37.2 794.52-37.2L794.52-37.2Q796.22-37.2 796.97-36.4 797.72-35.6 797.72-34.35L797.72-34.35 797.72-33.5Q797.72-32.25 796.97-31.45 796.22-30.65 794.52-30.65ZM791.77 0L791.77-26 797.22-26 797.22 0 791.77 0ZM816.96 0L812.21 0Q809.36 0 807.91-1.48 806.46-2.95 806.46-5.65L806.46-5.65 806.46-21.55 802.41-21.55 802.41-26 804.61-26Q805.96-26 806.49-26.6 807.01-27.2 807.01-28.55L807.01-28.55 807.01-33.1 811.91-33.1 811.91-26 817.36-26 817.36-21.55 811.91-21.55 811.91-4.45 816.96-4.45 816.96 0ZM834.01-10.7L839.21-26 844.46-26 833.51 5.15Q833.06 6.45 832.49 7.38 831.91 8.3 831.14 8.88 830.36 9.45 829.26 9.73 828.16 10 826.66 10L826.66 10 823.51 10 823.51 5.55 827.91 5.55 829.41 1.15 819.96-26 825.41-26 830.61-10.7 832.11-5.05 832.36-5.05 834.01-10.7Z" opacity="1" transform="matrix(1,0,0,1,0,0)" fill="#000000" class="slogan-text-1" data-fill-palette-color="secondary" id="text-1"></path></svg></g></svg></g></svg></g></svg></g></svg></g><defs></defs></svg><rect width="395.52" height="59.42135003066092" fill="none" stroke="none" visibility="hidden"></rect></g></svg></g></svg>